<svg xmlns="http://www.w3.org/2000/svg" viewBox="0 0 200 200" width="200" height="200">
  <path d="M 118 14 A 88 88 0 1 1 82 14" fill="none" stroke="#2f9e44" stroke-width="13" stroke-linecap="round"/>
  <g transform="translate(100 92) scale(1.05)">
    <circle cx="0" cy="-46" r="9" fill="#2f9e44"/>
    <path d="M -20 -30 L 0 -14 L 20 -30" fill="none" stroke="#2f9e44" stroke-width="9" stroke-linecap="round" stroke-linejoin="round"/>
    <path d="M -8 -16 L 8 -16 L 7 2 L 16 14 L -16 14 L -7 2 Z" fill="#2f9e44"/>
  </g>
  <g transform="translate(60 100) scale(0.7)">
    <circle cx="0" cy="-46" r="9" fill="#2f9e44"/>
    <path d="M -20 -30 L 0 -14 L 20 -30" fill="none" stroke="#2f9e44" stroke-width="9" stroke-linecap="round" stroke-linejoin="round"/>
    <path d="M -8 -16 L 8 -16 L 7 2 L 16 14 L -16 14 L -7 2 Z" fill="#2f9e44"/>
  </g>
  <g transform="translate(140 100) scale(0.7)">
    <circle cx="0" cy="-46" r="9" fill="#2f9e44"/>
    <path d="M -20 -30 L 0 -14 L 20 -30" fill="none" stroke="#2f9e44" stroke-width="9" stroke-linecap="round" stroke-linejoin="round"/>
    <path d="M -8 -16 L 8 -16 L 7 2 L 16 14 L -16 14 L -7 2 Z" fill="#2f9e44"/>
  </g>
  <path d="M 26 112 Q 100 98 174 112 L 168 134 Q 100 158 32 134 Z" fill="#2f9e44"/>
  <text x="100" y="129" text-anchor="middle" dominant-baseline="middle" font-family="Poppins, system-ui, sans-serif" font-size="26" font-weight="800" letter-spacing="1" fill="#ffffff">MAW</text>
</svg>
